<svg width="120" height="120" viewBox="0 0 120 120" fill="none" xmlns="http://www.w3.org/2000/svg">
<rect width="120" height="120" rx="16" fill="white"/>
<path fill-rule="evenodd" clip-rule="evenodd" d="M59.9882 34.1815C74.3069 34.1811 85.846 45.7058 85.8563 60.0178C85.8668 74.2531 74.2949 85.864 60.0912 85.8703C45.7207 85.8765 34.18 74.3385 34.1881 59.9727C34.196 45.7082 45.7262 34.1821 59.9882 34.1815ZM71.5623 51.7653C72.1418 52.0944 72.4682 52.2687 72.7834 52.4609C73.2962 52.7736 73.7623 52.9147 74.1593 52.2753C74.581 51.5963 74.1593 51.3261 73.6428 51.0331C68.4667 48.0977 62.9697 46.5905 56.9768 47.24C53.1938 47.65 49.6981 48.887 46.4632 50.8726C45.9898 51.1632 45.3739 51.4249 45.8566 52.1899C46.347 52.9673 46.8541 52.5905 47.3838 52.2513C47.6773 52.0632 47.9934 51.9102 48.4854 51.6388C48.2886 52.1207 48.1835 52.3933 48.0673 52.6609C45.8801 57.6963 43.6931 62.7314 41.5025 67.7652C40.7519 69.4897 41.0322 70.4225 42.6634 71.3991C43.1507 71.6907 43.6779 71.9398 44.2167 72.1181C47.5476 73.2203 50.9084 73.1932 54.2792 72.3094C55.065 72.1034 55.8015 71.7652 56.4883 71.3317C57.9683 70.3981 58.2402 69.4375 57.5394 67.8294C55.1854 62.4269 52.8569 57.0128 50.4748 51.6226C50.1482 50.8839 50.348 50.6722 51.0182 50.4134C56.993 48.1058 62.933 48.2452 68.8803 50.5289C69.6956 50.842 69.7507 51.1735 69.4207 51.9199C67.1333 57.0934 64.89 62.2862 62.6318 67.4726C61.7055 69.6 62.0746 70.6747 64.1759 71.6832C66.7808 72.9334 69.5604 73.1019 72.3823 72.8449C74.1725 72.6818 75.9201 72.3246 77.4716 71.341C78.9585 70.3989 79.2451 69.4359 78.5495 67.8445C77.4301 65.2837 76.3159 62.7205 75.2022 60.1573C74.0255 57.4477 72.8514 54.7374 71.5623 51.7653Z" fill="#00AB4E"/>
<path fill-rule="evenodd" clip-rule="evenodd" d="M59.927 105C47.0073 104.826 36.0043 100.124 27.1401 90.7342C20.007 83.1785 16.0418 74.113 15.172 63.7316C15.0933 62.7921 15.0898 61.8465 15.0068 60.9075C14.9623 60.4043 15.1327 60.2774 15.6205 60.2892C16.9336 60.3209 18.2488 60.322 19.562 60.2865C20.189 60.2697 20.0645 60.6733 20.0756 61.0257C20.1868 64.5798 20.6956 68.0776 21.7354 71.4769C23.671 77.8049 26.9433 83.3542 31.6133 88.0615C36.736 93.2254 42.7999 96.7997 49.8434 98.6204C57.3618 100.564 64.8549 100.41 72.2637 97.9934C81.3241 95.0382 88.4615 89.5438 93.617 81.5519C98.1683 74.4959 100.239 66.7301 99.8825 58.3242C99.4608 48.3751 95.7857 39.7538 88.9816 32.5654C82.2244 25.4266 73.86 21.3083 64.0294 20.3184C55.8834 19.4981 48.1943 21.0272 40.9948 24.9356C40.4402 25.2368 40.1027 25.2362 39.7725 24.6624C39.2014 23.6703 38.6181 22.6817 37.9777 21.7335C37.5902 21.1599 37.7392 20.8954 38.2958 20.586C41.705 18.6904 45.3084 17.2757 49.0868 16.347C56.079 14.6283 63.1125 14.5405 70.1316 16.1634C78.8686 18.1836 86.3826 22.4315 92.5498 28.9397C100.218 37.0317 104.393 46.673 104.94 57.8273C105.474 68.7184 102.449 78.5746 95.8444 87.222C88.7395 96.5243 79.3394 102.227 67.7877 104.33C65.1899 104.804 62.5739 104.999 59.927 105Z" fill="#BFD730"/>
<path fill-rule="evenodd" clip-rule="evenodd" d="M60.1122 25.0689C72.9614 25.5032 82.9442 31.0239 89.9257 41.8959C90.3132 42.4992 90.2462 42.7923 89.6218 43.1347C88.7378 43.6196 87.8723 44.1576 87.0693 44.7654C86.3445 45.3138 85.9649 45.2738 85.4652 44.4421C83.0088 40.3541 79.6991 37.0925 75.6538 34.5653C64.5419 27.6238 49.6546 28.9863 39.9948 37.8852C33.0864 44.2495 29.8146 52.1697 30.1839 61.5446C30.7379 75.621 41.788 87.8215 55.7864 89.5298C68.5145 91.0834 78.4208 86.2544 85.4784 75.5765C85.8127 75.0707 86.023 74.941 86.5535 75.3221C87.5101 76.01 88.5032 76.6536 89.5201 77.2488C90.1253 77.603 90.0723 77.9197 89.7374 78.4376C84.1604 87.0648 76.3865 92.5377 66.2597 94.3685C50.5896 97.2015 35.491 89.4299 28.4604 75.1053C20.3514 58.5841 27.1551 37.8059 43.4763 29.2208C48.6778 26.485 54.1932 25.045 60.1122 25.0689Z" fill="#72BF44"/>
<path fill-rule="evenodd" clip-rule="evenodd" d="M71.5623 51.7653C72.8514 54.7375 74.0255 57.4477 75.2024 60.157C76.3161 62.7203 77.4303 65.2835 78.5497 67.8443C79.2453 69.4357 78.9586 70.3986 77.4718 71.3407C75.9203 72.3241 74.1727 72.6815 72.3825 72.8447C69.5606 73.1017 66.781 72.9331 64.1761 71.683C62.0748 70.6747 61.7057 69.5998 62.6319 67.4723C64.8902 62.2859 67.1335 57.0931 69.4209 51.9197C69.7509 51.1733 69.6958 50.8418 68.8805 50.5287C62.9332 48.245 56.9934 48.1053 51.0183 50.4131C50.348 50.6718 50.1484 50.8835 50.4749 51.6224C52.8571 57.0126 55.1854 62.4266 57.5396 67.8291C58.2401 69.4371 57.9684 70.3976 56.4884 71.3314C55.8017 71.7649 55.0651 72.1031 54.2794 72.3092C50.9086 73.1928 47.5475 73.2201 44.2168 72.1179C43.6779 71.9396 43.1509 71.6907 42.6636 71.3988C41.0323 70.4223 40.7521 69.4895 41.5026 67.765C43.6933 62.7312 45.8803 57.696 48.0675 52.6606C48.1837 52.3931 48.2888 52.1205 48.4855 51.6386C47.9936 51.9102 47.6775 52.0632 47.384 52.251C46.8541 52.5904 46.3471 52.9671 45.8568 52.1897C45.3741 51.4249 45.99 51.163 46.4634 50.8723C49.6983 48.8865 53.194 47.6497 56.977 47.2397C62.9699 46.5903 68.4667 48.0974 73.643 51.0328C74.1595 51.3257 74.5812 51.5959 74.1595 52.2751C73.7625 52.9144 73.2964 52.7734 72.7836 52.4607C72.4681 52.2686 72.1418 52.0942 71.5623 51.7653ZM49.5851 53.2946C49.449 53.4239 49.38 53.4606 49.3555 53.5168C47.4068 57.9853 45.4686 62.4585 43.5082 66.9219C43.2142 67.5912 43.5756 67.5598 44.0394 67.5586C47.339 67.5507 50.6387 67.554 53.9384 67.5536C54.5012 67.5536 55.0641 67.5536 55.778 67.5536C53.6784 62.7202 51.6403 58.027 49.5851 53.2946ZM70.5891 53.3122C70.4524 53.4383 70.3508 53.4897 70.3158 53.5701C68.3865 58.01 66.4686 62.4548 64.5313 66.8914C64.2662 67.4985 64.5147 67.5625 65.0378 67.5609C68.6744 67.5481 72.311 67.5394 75.9473 67.5657C76.736 67.5714 76.6682 67.2903 76.4168 66.7339C75.7529 65.2634 75.1368 63.7712 74.4946 62.2911C73.2021 59.3122 71.9043 56.3355 70.5891 53.3122Z" fill="#F3FAF6"/>
<path fill-rule="evenodd" clip-rule="evenodd" d="M49.5849 53.2923C51.6403 58.0247 53.6783 62.7176 55.7776 67.5512C55.0637 67.5512 54.5009 67.5512 53.9381 67.5512C50.6385 67.5516 47.3388 67.5484 44.0391 67.5563C43.5753 67.5575 43.2139 67.5887 43.5079 66.9196C45.4683 62.4559 47.4065 57.983 49.3551 53.5145C49.3796 53.4584 49.4487 53.4216 49.5849 53.2923Z" fill="#00AB4E"/>
<path fill-rule="evenodd" clip-rule="evenodd" d="M70.5889 53.3099C71.9041 56.3331 73.2017 59.3098 74.4944 62.2888C75.1366 63.7688 75.7527 65.2612 76.4166 66.7316C76.6678 67.2879 76.7357 67.5692 75.9471 67.5634C72.3109 67.5369 68.6742 67.5458 65.0376 67.5585C64.5145 67.5603 64.266 67.4962 64.5311 66.889C66.4684 62.4525 68.3863 58.0077 70.3156 53.5677C70.3506 53.4874 70.4523 53.436 70.5889 53.3099Z" fill="#00AB4E"/>
</svg>
